<mxfile host="app.diagrams.net" modified="2023-03-06T20:53:18.239Z" agent="5.0 (Windows)" etag="I5FB0DqKs6n4CizMjNoO" version="21.0.2" type="github">
  <diagram name="Страница 1" id="mFjCaXx6Kx_iEhtSYMrV">
    <mxGraphModel dx="1500" dy="757" grid="1" gridSize="10" guides="1" tooltips="1" connect="1" arrows="1" fold="1" page="1" pageScale="1" pageWidth="1169" pageHeight="827" math="0" shadow="0">
      <root>
        <mxCell id="0" />
        <mxCell id="1" parent="0" />
        <mxCell id="EA_qAM9MpWt_pfTO48UK-9" style="edgeStyle=orthogonalEdgeStyle;rounded=0;orthogonalLoop=1;jettySize=auto;html=1;entryX=0.5;entryY=0;entryDx=0;entryDy=0;" edge="1" parent="1" source="EA_qAM9MpWt_pfTO48UK-5" target="EA_qAM9MpWt_pfTO48UK-6">
          <mxGeometry relative="1" as="geometry" />
        </mxCell>
        <mxCell id="EA_qAM9MpWt_pfTO48UK-5" value="&lt;font style=&quot;font-size: 15px;&quot;&gt;&lt;font style=&quot;font-size: 15px;&quot;&gt;&lt;font style=&quot;font-size: 15px;&quot;&gt;&lt;font style=&quot;font-size: 15px;&quot;&gt;&lt;font style=&quot;font-size: 14px;&quot;&gt;&lt;font style=&quot;font-size: 13px;&quot;&gt;&lt;font style=&quot;font-size: 12px;&quot;&gt;&lt;font style=&quot;font-size: 11px;&quot;&gt;&lt;font style=&quot;font-size: 12px;&quot;&gt;Начало работы с программой&lt;/font&gt;&lt;/font&gt;&lt;/font&gt;&lt;/font&gt;&lt;/font&gt;&lt;/font&gt;&lt;/font&gt;&lt;/font&gt;&lt;/font&gt;" style="rounded=1;whiteSpace=wrap;html=1;arcSize=50;" vertex="1" parent="1">
          <mxGeometry x="482" y="130" width="205" height="60" as="geometry" />
        </mxCell>
        <mxCell id="EA_qAM9MpWt_pfTO48UK-11" style="edgeStyle=orthogonalEdgeStyle;rounded=0;orthogonalLoop=1;jettySize=auto;html=1;entryX=0.25;entryY=0;entryDx=0;entryDy=0;dashed=1;" edge="1" parent="1" source="EA_qAM9MpWt_pfTO48UK-6" target="EA_qAM9MpWt_pfTO48UK-10">
          <mxGeometry relative="1" as="geometry">
            <Array as="points">
              <mxPoint x="690" y="330" />
            </Array>
          </mxGeometry>
        </mxCell>
        <mxCell id="EA_qAM9MpWt_pfTO48UK-14" style="edgeStyle=orthogonalEdgeStyle;rounded=0;orthogonalLoop=1;jettySize=auto;html=1;entryX=0.5;entryY=0;entryDx=0;entryDy=0;" edge="1" parent="1" source="EA_qAM9MpWt_pfTO48UK-6" target="EA_qAM9MpWt_pfTO48UK-13">
          <mxGeometry relative="1" as="geometry" />
        </mxCell>
        <mxCell id="EA_qAM9MpWt_pfTO48UK-6" value="Авторизация" style="rounded=0;whiteSpace=wrap;html=1;" vertex="1" parent="1">
          <mxGeometry x="525" y="275" width="120" height="60" as="geometry" />
        </mxCell>
        <mxCell id="EA_qAM9MpWt_pfTO48UK-8" style="edgeStyle=orthogonalEdgeStyle;rounded=0;orthogonalLoop=1;jettySize=auto;html=1;" edge="1" parent="1" source="EA_qAM9MpWt_pfTO48UK-7" target="EA_qAM9MpWt_pfTO48UK-6">
          <mxGeometry relative="1" as="geometry" />
        </mxCell>
        <mxCell id="EA_qAM9MpWt_pfTO48UK-7" value="Таблица Users" style="shape=cylinder3;whiteSpace=wrap;html=1;boundedLbl=1;backgroundOutline=1;size=15;" vertex="1" parent="1">
          <mxGeometry x="790" y="230" width="130" height="90" as="geometry" />
        </mxCell>
        <mxCell id="EA_qAM9MpWt_pfTO48UK-12" style="edgeStyle=orthogonalEdgeStyle;rounded=0;orthogonalLoop=1;jettySize=auto;html=1;entryX=0.5;entryY=1;entryDx=0;entryDy=0;entryPerimeter=0;" edge="1" parent="1" source="EA_qAM9MpWt_pfTO48UK-10" target="EA_qAM9MpWt_pfTO48UK-7">
          <mxGeometry relative="1" as="geometry" />
        </mxCell>
        <mxCell id="EA_qAM9MpWt_pfTO48UK-10" value="Регистрация" style="rounded=0;whiteSpace=wrap;html=1;" vertex="1" parent="1">
          <mxGeometry x="660" y="384" width="120" height="60" as="geometry" />
        </mxCell>
        <mxCell id="EA_qAM9MpWt_pfTO48UK-18" style="edgeStyle=orthogonalEdgeStyle;rounded=0;orthogonalLoop=1;jettySize=auto;html=1;entryX=0.5;entryY=0;entryDx=0;entryDy=0;" edge="1" parent="1" source="EA_qAM9MpWt_pfTO48UK-13" target="EA_qAM9MpWt_pfTO48UK-17">
          <mxGeometry relative="1" as="geometry" />
        </mxCell>
        <mxCell id="EA_qAM9MpWt_pfTO48UK-13" value="Запрос на поиск билетов" style="rounded=0;whiteSpace=wrap;html=1;" vertex="1" parent="1">
          <mxGeometry x="525" y="450" width="120" height="60" as="geometry" />
        </mxCell>
        <mxCell id="EA_qAM9MpWt_pfTO48UK-16" style="edgeStyle=orthogonalEdgeStyle;rounded=0;orthogonalLoop=1;jettySize=auto;html=1;entryX=1;entryY=0.5;entryDx=0;entryDy=0;" edge="1" parent="1" source="EA_qAM9MpWt_pfTO48UK-15" target="EA_qAM9MpWt_pfTO48UK-13">
          <mxGeometry relative="1" as="geometry" />
        </mxCell>
        <mxCell id="EA_qAM9MpWt_pfTO48UK-15" value="Доступные рейсы, места в самолетах" style="shape=cylinder3;whiteSpace=wrap;html=1;boundedLbl=1;backgroundOutline=1;size=15;" vertex="1" parent="1">
          <mxGeometry x="810" y="440" width="130" height="100" as="geometry" />
        </mxCell>
        <mxCell id="EA_qAM9MpWt_pfTO48UK-20" style="edgeStyle=orthogonalEdgeStyle;rounded=0;orthogonalLoop=1;jettySize=auto;html=1;entryX=0.5;entryY=0;entryDx=0;entryDy=0;" edge="1" parent="1" source="EA_qAM9MpWt_pfTO48UK-17" target="EA_qAM9MpWt_pfTO48UK-19">
          <mxGeometry relative="1" as="geometry" />
        </mxCell>
        <mxCell id="EA_qAM9MpWt_pfTO48UK-17" value="Выбор нужных билетов" style="rounded=0;whiteSpace=wrap;html=1;" vertex="1" parent="1">
          <mxGeometry x="525" y="580" width="120" height="60" as="geometry" />
        </mxCell>
        <mxCell id="EA_qAM9MpWt_pfTO48UK-21" style="edgeStyle=orthogonalEdgeStyle;rounded=0;orthogonalLoop=1;jettySize=auto;html=1;" edge="1" parent="1" source="EA_qAM9MpWt_pfTO48UK-19">
          <mxGeometry relative="1" as="geometry">
            <mxPoint x="585" y="380" as="targetPoint" />
            <Array as="points">
              <mxPoint x="410" y="720" />
              <mxPoint x="410" y="380" />
            </Array>
          </mxGeometry>
        </mxCell>
        <mxCell id="EA_qAM9MpWt_pfTO48UK-22" value="Нет" style="edgeLabel;html=1;align=center;verticalAlign=middle;resizable=0;points=[];" vertex="1" connectable="0" parent="EA_qAM9MpWt_pfTO48UK-21">
          <mxGeometry x="-0.0277" relative="1" as="geometry">
            <mxPoint y="-1" as="offset" />
          </mxGeometry>
        </mxCell>
        <mxCell id="EA_qAM9MpWt_pfTO48UK-24" style="edgeStyle=orthogonalEdgeStyle;rounded=0;orthogonalLoop=1;jettySize=auto;html=1;entryX=0;entryY=0.5;entryDx=0;entryDy=0;" edge="1" parent="1" source="EA_qAM9MpWt_pfTO48UK-19" target="EA_qAM9MpWt_pfTO48UK-23">
          <mxGeometry relative="1" as="geometry" />
        </mxCell>
        <mxCell id="EA_qAM9MpWt_pfTO48UK-19" value="Оформление заказа?" style="rounded=0;whiteSpace=wrap;html=1;" vertex="1" parent="1">
          <mxGeometry x="525" y="690" width="120" height="60" as="geometry" />
        </mxCell>
        <mxCell id="EA_qAM9MpWt_pfTO48UK-26" style="edgeStyle=orthogonalEdgeStyle;rounded=0;orthogonalLoop=1;jettySize=auto;html=1;entryX=0;entryY=0;entryDx=71.25;entryDy=40;entryPerimeter=0;" edge="1" parent="1" source="EA_qAM9MpWt_pfTO48UK-23" target="EA_qAM9MpWt_pfTO48UK-25">
          <mxGeometry relative="1" as="geometry" />
        </mxCell>
        <mxCell id="EA_qAM9MpWt_pfTO48UK-28" style="edgeStyle=orthogonalEdgeStyle;rounded=0;orthogonalLoop=1;jettySize=auto;html=1;entryX=0;entryY=0.5;entryDx=0;entryDy=0;" edge="1" parent="1" source="EA_qAM9MpWt_pfTO48UK-23" target="EA_qAM9MpWt_pfTO48UK-27">
          <mxGeometry relative="1" as="geometry" />
        </mxCell>
        <mxCell id="EA_qAM9MpWt_pfTO48UK-23" value="Обработка заказа" style="rounded=0;whiteSpace=wrap;html=1;" vertex="1" parent="1">
          <mxGeometry x="760" y="690" width="120" height="60" as="geometry" />
        </mxCell>
        <mxCell id="EA_qAM9MpWt_pfTO48UK-25" value="Проверка заказа" style="shape=display;whiteSpace=wrap;html=1;" vertex="1" parent="1">
          <mxGeometry x="810" y="610" width="130" height="40" as="geometry" />
        </mxCell>
        <mxCell id="EA_qAM9MpWt_pfTO48UK-30" style="edgeStyle=orthogonalEdgeStyle;rounded=0;orthogonalLoop=1;jettySize=auto;html=1;entryX=0.75;entryY=1;entryDx=0;entryDy=0;" edge="1" parent="1" source="EA_qAM9MpWt_pfTO48UK-27" target="EA_qAM9MpWt_pfTO48UK-29">
          <mxGeometry relative="1" as="geometry">
            <Array as="points">
              <mxPoint x="1110" y="720" />
            </Array>
          </mxGeometry>
        </mxCell>
        <mxCell id="EA_qAM9MpWt_pfTO48UK-27" value="Покупка билетов" style="rounded=0;whiteSpace=wrap;html=1;" vertex="1" parent="1">
          <mxGeometry x="940" y="690" width="120" height="60" as="geometry" />
        </mxCell>
        <mxCell id="EA_qAM9MpWt_pfTO48UK-29" value="Конец работы программы" style="rounded=1;whiteSpace=wrap;html=1;arcSize=50;" vertex="1" parent="1">
          <mxGeometry x="990" y="560" width="160" height="60" as="geometry" />
        </mxCell>
      </root>
    </mxGraphModel>
  </diagram>
</mxfile>
